<svg xmlns="http://www.w3.org/2000/svg" version="1.0" width="512.000000pt" height="512.000000pt" viewBox="0 0 512.000000 512.000000" preserveAspectRatio="xMidYMid meet">

<g transform="translate(0.000000,512.000000) scale(0.100000,-0.100000)" fill="#f1f1f1" stroke="none">
<path d="M1205 4151 c-90 -22 -173 -90 -215 -176 -34 -69 -35 -198 -2 -265 34 -71 75 -113 144 -151 l63 -34 1365 0 1365 0 63 34 c70 38 101 70 140 145 22 43 26 64 26 136 1 78 -2 90 -33 148 -37 69 -79 109 -151 144 l-45 23 -1345 2 c-740 0 -1358 -2 -1375 -6z" fill="#f1f1f1"/>
<path d="M1205 2871 c-90 -22 -173 -90 -215 -176 -34 -69 -35 -198 -2 -265 34 -71 75 -113 144 -151 l63 -34 1365 0 1365 0 63 34 c70 38 101 70 140 145 22 43 26 64 26 136 1 78 -2 90 -33 148 -37 69 -79 109 -151 144 l-45 23 -1345 2 c-740 0 -1358 -2 -1375 -6z" fill="#f1f1f1"/>
<path d="M1205 1591 c-90 -22 -173 -90 -215 -176 -34 -69 -35 -198 -2 -265 34 -71 75 -113 144 -151 l63 -34 1365 0 1365 0 63 34 c70 38 101 70 140 145 22 43 26 64 26 136 1 78 -2 90 -33 148 -37 69 -79 109 -151 144 l-45 23 -1345 2 c-740 0 -1358 -2 -1375 -6z" fill="#f1f1f1"/>
</g>
</svg>