<svg version="1.1" xmlns="http://www.w3.org/2000/svg" xmlns:xlink="http://www.w3.org/1999/xlink" width="512.000000pt" height="512.000000pt" viewBox="0,0,256,256"><g fill="#ffffff" fill-rule="nonzero" stroke="none" stroke-width="1" stroke-linecap="butt" stroke-linejoin="miter" stroke-miterlimit="10" stroke-dasharray="" stroke-dashoffset="0" font-family="none" font-weight="none" font-size="none" text-anchor="none" style="mix-blend-mode: normal"><g transform="translate(0.08438,0.14398) scale(0.5,0.5)"><g transform="translate(0,512) scale(0.1,-0.1)"><path d="M385,5106c-36,-15 -83,-68 -90,-99c-3,-12 -4,-1121 -3,-2464l3,-2442l21,-27c39,-52 71,-69 132,-69c56,1 81,14 2192,1157c1680,910 2140,1162 2160,1188c21,27 25,44 25,95c0,51 -5,68 -25,94c-18,23 -645,402 -2160,1303c-2304,1373 -2176,1301 -2255,1264z"></path></g></g></g></svg>